<?xml version="1.0" encoding="UTF-8" standalone="no"?>
<!-- Created with Inkscape (http://www.inkscape.org/) -->
<svg xmlns:inkscape="http://www.inkscape.org/namespaces/inkscape" xmlns:rdf="http://www.w3.org/1999/02/22-rdf-syntax-ns#" xmlns="http://www.w3.org/2000/svg" xmlns:sodipodi="http://sodipodi.sourceforge.net/DTD/sodipodi-0.dtd" xmlns:cc="http://creativecommons.org/ns#" xmlns:xlink="http://www.w3.org/1999/xlink" xmlns:dc="http://purl.org/dc/elements/1.1/" xmlns:svg="http://www.w3.org/2000/svg" id="svg1" sodipodi:docname="_svgclean2.svg" viewBox="0 0 115.34 175.45" sodipodi:version="0.32" version="1.1" inkscape:version="0.48.3.1 r9886" xmlns:ns1="http://sozi.baierouge.fr">
  <defs id="defs3">
    <linearGradient id="linearGradient1724">
      <stop id="stop1725" style="stop-color:#ff41a0" offset="0"/>
      <stop id="stop1726" style="stop-color:#fd4bae" offset="1"/>
    </linearGradient>
    <linearGradient id="linearGradient5526" y2="172.52" gradientUnits="userSpaceOnUse" y1="181.01" gradientTransform="matrix(.95987 0 0 1.0418 -65.658 -29.34)" x2="185.97" x1="168.25" inkscape:collect="always">
      <stop id="stop4874" style="stop-color:#d88721" offset="0"/>
      <stop id="stop4876" style="stop-color:#a85c00" offset=".5"/>
      <stop id="stop4875" style="stop-color:#643e0e" offset="1"/>
    </linearGradient>
    <linearGradient id="linearGradient5527" y2="115.81" spreadMethod="reflect" gradientUnits="userSpaceOnUse" y1="112.84" gradientTransform="matrix(1.2069 0 0 .82856 -89.834 -64.204)" x2="99.207" x1="97.345" inkscape:collect="always">
      <stop id="stop1742" style="stop-color:#868686" offset="0"/>
      <stop id="stop1743" style="stop-color:#e2e2e2" offset="1"/>
    </linearGradient>
    <linearGradient id="linearGradient5575" y2="70.957" xlink:href="#linearGradient1724" gradientUnits="userSpaceOnUse" y1="83.359" gradientTransform="matrix(1.0282 0 0 .97253 -89.834 -63.186)" x2="123.82" x1="104.09" inkscape:collect="always"/>
    <linearGradient id="linearGradient5576" y2="77.379" xlink:href="#linearGradient1724" gradientUnits="userSpaceOnUse" y1="77.379" gradientTransform="matrix(1.0286 0 0 .97219 -89.834 -63.186)" x2="125.26" x1="100.77" inkscape:collect="always"/>
    <linearGradient id="linearGradient5577" y2="61.143" gradientUnits="userSpaceOnUse" y1="84.255" gradientTransform="matrix(.96204 0 0 1.0395 -89.834 -63.186)" x2="127.85" x1="97.281" inkscape:collect="always">
      <stop id="stop1717" style="stop-color:#ff74ba" offset="0"/>
      <stop id="stop1718" style="stop-color:#ff91ce" offset="1"/>
    </linearGradient>
  </defs>
  <sodipodi:namedview id="base" bordercolor="#666666" inkscape:pageshadow="2" inkscape:window-y="0" pagecolor="#ffffff" inkscape:window-maximized="0" inkscape:window-width="674" inkscape:zoom="9.8238822" inkscape:window-x="0" showgrid="false" borderopacity="1.0" inkscape:current-layer="svg1" inkscape:cx="91.166692" inkscape:cy="-849.62101" inkscape:window-height="645" inkscape:pageopacity="0.0"/>
  <path id="path1719" inkscape:connector-curvature="0" sodipodi:nodetypes="cccccc" style="fill-rule:evenodd;stroke:url(#linearGradient5576);stroke-width:.25pt;fill:url(#linearGradient5575)" d="m13.815 2.1733s7.198-2.3393 9.717-1.9794 5.038 3.239 5.038 3.239l10.437 19.074-12.236 1.44-12.956-21.774z"/>
  <path id="path1086" inkscape:connector-curvature="0" sodipodi:nodetypes="ccccccc" style="fill-rule:evenodd;fill:url(#linearGradient5577)" d="m10.756 31.324-10.437-16.914c-0.72-2.34-0.3601-3.24 2.519-6.119 2.879-2.879 7.558-4.6782 10.077-5.7579s2.519-0.7198 2.519-0.7198l12.237 20.154-16.915 9.357z"/>
  <path id="path4247" inkscape:connector-curvature="0" sodipodi:nodetypes="ccccccc" style="fill-rule:evenodd;stroke:#000000;stroke-width:.25pt;fill:url(#linearGradient5526)" d="m85.676 152.63 21.95 16.91 6.66-2.16-1.96-24.46-5.06-7.39-24.29 11.34 2.7 5.76z"/>
  <path id="path1745" inkscape:connector-curvature="0" sodipodi:nodetypes="ccccc" style="fill-rule:evenodd;stroke:#000000;stroke-width:.25pt;fill:#feb400" d="m17.956 43.266 65.87 107.21 7.56-4.68-66.95-108.29-6.48 5.76z"/>
  <path id="path1747" inkscape:connector-curvature="0" sodipodi:nodetypes="ccccc" style="fill-rule:evenodd;stroke:#000000;stroke-width:.25pt;fill:#fe4900" d="m35.766 33.185 66.04 106.89 7.02-4.13-64.78-104.02-8.28 1.259z"/>
  <path id="path1746" inkscape:connector-curvature="0" sodipodi:nodetypes="ccccc" style="fill-rule:evenodd;stroke:#000000;stroke-width:.25pt;fill:#fe8300" d="m24.796 38.226 66.64 107.5 10.08-6.3-66.11-106.78-10.61 5.58z"/>
  <path id="path1736" inkscape:connector-curvature="0" sodipodi:nodetypes="ccccccccccc" style="fill-rule:evenodd;stroke:#000000;stroke-width:.25pt;fill:url(#linearGradient5527)" d="m20.166 46.376c1.28 0.26 6.12-5.22 13.68-7.74 7.56-2.51 11.82-3.651 12.72-4.911 0.9-1.259 0.04-4.234-3.06-4.498-3.25-0.277 1.97-5.399-1.62-5.579-3.6-0.18-0.36-5.398-3.6-5.038-3.59 0.399-9 1.08-14.93 3.599-5.94 2.519-13.68 7.558-14.04 8.277-0.36 0.72-0.9 3.779 1.8 4.859 2.7 1.081-0.18 3.241 3.24 5.041s0.24 6.89 5.81 5.99z"/>
  <path id="path1748" inkscape:connector-curvature="0" sodipodi:nodetypes="ccccccc" style="fill-rule:evenodd;stroke:#000000;stroke-width:.25pt;fill:#feb400" d="m83.816 150.46 7.44-4.83s1.69 3.04 1.96 5.38c0.23 2.04 1.03 4.25-0.57 5.08-1.39 0.73-2.4 0.32-3.51-0.54-1.1-0.85-3.41-2.7-3.84-3.21-0.43-0.52-1.48-1.88-1.48-1.88z"/>
  <path id="path2372" inkscape:connector-curvature="0" sodipodi:nodetypes="ccccc" style="fill-rule:evenodd;fill:#feb300" d="m83.416 149.52 0.71 1.11 7.19-4.56-0.55-0.98-7.35 4.43z"/>
  <path id="path3001" inkscape:connector-curvature="0" sodipodi:nodetypes="ccccccc" style="fill-rule:evenodd;stroke:#000000;stroke-width:.25pt;fill:#fe8300" d="m91.456 145.67s3.5 4.93 4.77 5.85 5.27 2.41 6.55 1.59c1.31-0.84 1.31-3.76 1.31-5.22s-0.96-5.15-1.15-5.66-1.4-2.76-1.4-2.76l-10.08 6.2z"/>
  <path id="path3002" inkscape:connector-curvature="0" sodipodi:nodetypes="ccccc" style="fill-rule:evenodd;fill:#fe8300" d="m91.266 145.18 0.62 0.82 9.75-6.04-0.58-0.89-9.79 6.11z"/>
  <path id="path3624" inkscape:connector-curvature="0" sodipodi:nodetypes="ccccccc" style="fill-rule:evenodd;stroke:#000000;stroke-width:.25pt;fill:#fe4900" d="m101.97 140.21s3.5 5.94 4.36 6.66c0.85 0.72 2.07 1.8 3.15 1.93 1.08 0.14 3.15 0.36 3.06-2.02s0.09-4.23-0.99-6.3c-1.13-2.16-2.66-4.45-2.66-4.45l-6.92 4.18z"/>
  <path id="path3625" inkscape:connector-curvature="0" sodipodi:nodetypes="ccccc" style="fill-rule:evenodd;fill:#fe4900" d="m108.4 135.62 0.67 0.95-6.72 3.96-1-1.7 7.05-3.21z"/>
  <path id="path4877" inkscape:connector-curvature="0" sodipodi:nodetypes="cccccc" style="fill-rule:evenodd;stroke:#000000;stroke-width:.25pt;fill:#000000" d="m107.45 169.45 7.74 5.85-0.9-8.37s-1.85-3.5-2.25-2.16c-0.81 2.7-1.25 3.05-3.6 1.71-2.37-1.35-0.99 2.97-0.99 2.97z"/>
  <metadata id="metadata34">
    <rdf:RDF>
      <cc:Work>
        <dc:format>image/svg+xml</dc:format>
        <dc:type rdf:resource="http://purl.org/dc/dcmitype/StillImage"/>
        <cc:license rdf:resource="http://creativecommons.org/licenses/publicdomain/"/>
        <dc:publisher>
          <cc:Agent rdf:about="http://openclipart.org/">
            <dc:title>Openclipart</dc:title>
          </cc:Agent>
        </dc:publisher>
      </cc:Work>
      <cc:License rdf:about="http://creativecommons.org/licenses/publicdomain/">
        <cc:permits rdf:resource="http://creativecommons.org/ns#Reproduction"/>
        <cc:permits rdf:resource="http://creativecommons.org/ns#Distribution"/>
        <cc:permits rdf:resource="http://creativecommons.org/ns#DerivativeWorks"/>
      </cc:License>
    </rdf:RDF>
  </metadata>
</svg>
